# xmcd
#
# Track frame offsets:
#	150
#	22071
#	42415
#	64542
#	77067
#	90275
#	109406
#	128220
#	146530
#	164981
#	172284
#	193443
#
# Disc length: 2803 seconds
# Revision: 0
# Processed by: cddbd v1.5.2PL0 Copyright (c) Steve Scherf et al.
# Submitted via: dBpowerAMP V12.0
#
DISCID=b40af10c
DTITLE=The Avett brothers - The carpenter
DYEAR=2012
DGENRE=Country
TTITLE0=The once and future carpenter
TTITLE1=Live and die
TTITLE2=Winter in my heart
TTITLE3=Pretty girl from Michigan
TTITLE4=I never knew you
TTITLE5=Fabruary seven
TTITLE6=Through my prayers
TTITLE7=Down with the shine
TTITLE8=A father first spring
TTITLE9=Geraldine
TTITLE10=Paul Newman vs The demons
TTITLE11=Life
EXTD=
EXTT0=
EXTT1=
EXTT2=
EXTT3=
EXTT4=
EXTT5=
EXTT6=
EXTT7=
EXTT8=
EXTT9=
EXTT10=
EXTT11=
PLAYORDER=
